@startuml
skinparam classAttributeIconSize 0
hide methods
left to right direction

class Entrega {
  -idEntrega
  -dataInicio
  -dataFim
  -pesoEntrega
}

class Encomenda {
  -idEncomenda
  -dataPedida
  -preco
  -pesoEncomenda
  -taxa
}

class Estafeta {
  -pesoEstafeta
}


class Scooter {
  -idScooter
}

class EstadoEncomenda {
  -idEstadoEncomenda
  -designacao
}

class Utilizador {
  -NIF
  -nome
  -email
  -numeroSegurancaSocial
  -password
}

class Veiculo {
  -idveiculo
  -descricao
  -capacidade
  -percentagemBateria
  -pesoMaximo
  -pesoVeiculo
  -potencia
  -areaFrontal
}

class Drone {
  -idDrone
  -hoverPower
}

Encomenda "1" -- "1" EstadoEncomenda : tem >
Entrega "1" -- "*" Encomenda : possui >
Estafeta "1" -- "*" Entrega: realiza >
Entrega "*" -- "1" Veiculo: realiza <
Estafeta "1" -- "1" Utilizador: atua como >
Veiculo "1" -- "1" Drone: é <
Veiculo "1" -- "1" Scooter: é <

@enduml
