@startuml
skinparam classAttributeIconSize 0

class Farmacia {
  -Integer NIF
  -String email
  -String morada
  +Farmacia(Integer NIF, email, morada)
}

class Endereco {
  -String morada
  -Double latitude
  -Double longitude
  -Double altitude 
  +Endereco(String morada, Double latitude, Double longitude, Double altitude)
}

class Parque {
  -Integer NIF
  -Integer numeroMaximo
  -String tipo
  -Integer maxCap
  +Parque(Integer NIF, Integer numeroMaximo, String tipo, Integer maxCap)
}

class FarmaciaDB {
  +Farmacia novaFarmacia(NIF, email, morada)
  +registaFarmacia(Farmacia farm)
  +validaFarmacia(Farmacia farm)
  -addFarmacia(Farmacia farm)
}

class EnderecoDB {
  +Endereco novoEndereco(String morada, Double latitude, Double longitude, Double altitude)
  +registaEndereco(Endereco end)
  +validaEndereco(Endereco end)
  -addEndereco(Endereco end)
}

class ParqueDB {
  +Parque novoParque(Integer NIF, Integer numeroMaximo, String tipo, Integer maxCap)
  +registaParques(List<Parque> lparks)
  +validaParque(Parque parque)
  -addParque(Parque parque)
}

class RegistarFarmaciaController {
  +novoParque(Integer NIF, Integer numeroMaximo, String tipo, Integer maxCap)
  +novaFarmacia(NIF, email, morada)
  +novoEndereco(morada, latitude, longitude, altitude)
  +registaEndereco(end)
  +registaFarmacia(farm)
  +registaParques(lparks)
}

class RegistarFarmaciaUI {
  
}

RegistarFarmaciaUI ..> RegistarFarmaciaController
RegistarFarmaciaController ..> ParqueDB
RegistarFarmaciaController ..> EnderecoDB
RegistarFarmaciaController ..> FarmaciaDB
RegistarFarmaciaController ..> Parque
RegistarFarmaciaController ..> Endereco
RegistarFarmaciaController ..> Farmacia

ParqueDB "1" --> "*" Parque : possui
EnderecoDB "1" --> "*" Endereco : possui
FarmaciaDB "1" --> "*" Farmacia : possui
Farmacia "1" --> "1" Parque : tem
Parque "1" --> "1" Endereco : tem


@enduml
