@startuml
skinparam classAttributeIconSize 0

class VeiculoDB {
  +updateDrone(idVeiculo, hoverPower)
  +updateVeiculo(veiculo)
}

class VeiculoController {
  +updateDrone(idVeiculo, hoverPower)
  +updateVeiculo(veiculo)
}

class AdminUI {
}


class Parque {
  -Integer idParque
  -Integer numeroMaximo
  -String tipo
}

class Farmacia {
  -Integer NIF
  -String email
}

class Utilizador {
  -Integer NIF
  -String nome
  -String email
  -Integer numeroSegurancaSocial
  -String password
}

class Veiculo {
  -Integer idVeiculo
  -String descricao
  -Double percentagemBateria
  -Double pesoMaximo
  -Double pesoVeiculo
  -Double potencia
  -Double areaFrontal
}

class Drone{
  -Integer idDrone
  -Double hoverPower
}

Administrador "1" -- "1" Utilizador: atua como >
Administrador "1" -- "1..*" Parque: remove >
Farmacia "1" -- "1" Parque: tem >
Farmacia "1" -- "1" Administrador: tem >
Parque "1" -- "0..*" Veiculo: tem > 
VeiculoDB "1" -- "*" Veiculo: tem registados> 
Veiculo "1" -- "1" Drone: é <

AdminUI ..> VeiculoController 

VeiculoController ..> VeiculoDB

@enduml