@startuml
skinparam classAttributeIconSize 0
left to right direction


class RealizaEncomendaUI {
    
}

class RealizaEncomendaController {
    +getCliente()
    +produtoEncomenda(nif,produto,quantidade)
    +registaEncomenda(enc)
    +novoRecibo(nifCliente, lista, precoTotal, dataRecibo)
    +verificaProdutoStock(prod,quantidade)
    +getPrecoTotal()
    +removeCreditos(nifCliente, precoTotal)
    +getCreditosData(dataPedida, precoTotal)
    +geraCreditos(c,precoTotal)
    +getFarmaciaByNif(nif)
    +getFarmaciaMaisProxima(nif)
    +getCliente()
    +getEnderecoByCliente(nif)
}

class UserSession {
    +getUser()
}

class ClienteDataHandler {
    +Cliente getClienteByEmail()
    +getEnderecoCliente(cliente)
    +removeCreditos(nifCliente, precoTotal)
}

class EnderecoDB {
    +getEnderecoByCliente(nif)
}

class EmailDB {
    +sendEmail(email, assunto, mensagem)
}

class ReciboDataHandler {
    +validateRecibo(rec)
    +addRecibo(rec)
    +create(nifCliente, lista, precoTotal, dataRecibo)
}

class ProdutoDataHandler {
    +List<Produto> getListaStock()
    +List<Produto> getListaProdutos()
    +addNovoProduto(produto)
    +getLista(nif)
}

class EncomendaDataHandler {
    +Encomenda novaEncomenda(lista, cliente, idEncomenda, dataPedida, preco, peso)
    +registarEncomenda(encomenda)
    +validaEncomenda(enc)
    +addEncomenda(enc)
    +getData()
    +getCreditosData(dataPedida, precoTotal)
    +geraCreditos(c,precoTotal)
}

class FarmaciaDB {
    +getFarmaciaByNif(nif)
    +addTransferencia(nif1, nif2, id, quantidade, 1)
    +enviarStock(fOrig, fDest, prod, quantidade)
    +getFarmaciaByNif(nif)
    +generateGraph()
}

class PedirItemFarmaciaDB {
    +realizaPedido(farmacia1, farmacia2, produto, quantidade)
    +generateGraph()
}

class Recibo {
  -idRecibo
  -precoTotal
  -lista
  -dataRecibo
  +create(nifCliente, lista, precoTotal, dataRecibo)
}

class Encomenda {
  -idEncomenda
  -dataPedida
  -preco
  -peso
  -taxa
  +create(lista, cliente, idEncomenda, dataPedida, preco, peso)
}

class Produto {
    -idProduto
    -designacao
    -peso
    -precoBase
    +getPeso()
    +getPreco()
}

class Endereco {
  -morada
  -latitude
  -longitude
  +getMorada()
}

class Cliente {
  -NIF
  -nome
  -email
  -numeroSegurancaSocial
  -password
  -credito
  +getNif()
}

class Caminho {
  -roadResistanceCoefficient
  -velocidadeVento
  -direcaoVento
  -tipo
}

RealizaEncomendaUI .> RealizaEncomendaController

RealizaEncomendaController .> ClienteDataHandler
RealizaEncomendaController .> ProdutoDataHandler
RealizaEncomendaController .> EncomendaDataHandler
RealizaEncomendaController .> ReciboDataHandler
RealizaEncomendaController .> EmailDB

RealizaEncomendaController .> EnderecoDB

EnderecoDB .> Endereco

RealizaEncomendaController .> UserSession

RealizaEncomendaUI .> PedirItemFarmaciaDB

PedirItemFarmaciaDB .> FarmaciaDB

ClienteDataHandler .> Cliente
ProdutoDataHandler .> Produto
EncomendaDataHandler .> Encomenda
ReciboDataHandler .> Recibo

Recibo "1" -- "1" Encomenda: referente a >
Recibo "1" -- "1" Cliente: referente a >
Cliente "1" -- "*" Encomenda: realiza e paga >
Encomenda "1" -- "1..*" Produto: tem >
Cliente "1" -- "1" Endereco: tem >
Caminho "1" -- "1" Endereco: referente a >

@enduml