@startuml
skinparam classAttributeIconSize 0

class VeiculoDB {
  +update(veiculo)
}

class VeiculoController {
    +update(veiculo)
}

class AdminUI {
}


class Parque {
  -Integer idParque
  -Integer numeroMaximo
  -String tipo
}

class Farmacia {
  -Integer NIF
  -String email
  -String morada
}

class Utilizador {
  -Integer NIF
  -String nome
  -String email
  -Integer numeroSegurancaSocial
  -String password
}

class Veiculo {
  -Integer idVeiculo
  -String tipo
  -Double percentagemBateria
  -Double pesoMaximo
  -Double pesoVeiculo
  -Double potencia
  -Double areaFrontal
}

Administrador "1" -- "1" Utilizador: atua como >
Administrador "1" -- "1..*" Parque: remove >
Farmacia "1" -- "1" Parque: tem >
Farmacia "1" -- "1" Administrador: tem >
Parque "1" -- "0..*" Veiculo: tem > 
VeiculoDB "1" -- "*" Veiculo: tem registados> 

AdminUI ..> VeiculoController 

VeiculoController ..> VeiculoDB


@enduml